<svg width="260" height="8" viewBox="0 0 260 8" fill="none" xmlns="http://www.w3.org/2000/svg">
<path d="M260.263 4.89289C258.988 4.74861 257.708 4.72884 256.43 4.66758C255.151 4.60631 253.884 4.52881 252.62 4.39322C249.793 4.09503 246.978 3.78892 244.161 3.50772C238.727 2.96885 233.279 2.49601 227.827 2.15599C222.826 1.84283 217.823 1.59609 212.817 1.41576C211.516 1.37033 210.226 1.32528 208.925 1.27985C203.964 1.10658 198.999 1.02462 194.023 0.950598C182.404 0.785915 170.786 0.621237 159.173 0.622971C147.824 0.625644 136.475 0.66153 125.133 0.789113C119.556 0.852027 113.98 0.906638 108.4 1.03596C102.381 1.13329 96.3514 1.1887 90.3192 1.32715L53.0212 2.18574C42.2381 2.44088 31.466 3.01225 20.7404 3.8346C13.8227 4.35771 6.91137 5.01403 0.0188998 5.76244C7.87828 6.40816 15.7543 6.89377 23.6469 7.21926C28.807 7.39945 33.9577 7.52944 39.0901 7.55075C42.4013 7.56664 45.7139 7.54102 49.0829 7.48411C51.1264 7.44742 53.1719 7.35262 55.2166 7.28272L71.6848 6.71078C77.9407 6.48871 84.1978 6.23345 90.4743 6.05367L109.836 5.45808C115.637 5.29495 121.436 5.19822 127.247 5.06867C133.058 4.93913 138.568 4.89881 144.233 4.83068C149.899 4.76254 155.662 4.74767 161.37 4.71428C167.078 4.68089 173.004 4.76315 178.809 4.79964C189.437 4.87156 200.048 5.13402 210.667 5.45499C216.566 5.66097 222.482 5.68471 228.386 5.73297C234.29 5.78122 240.03 5.79051 245.839 5.72738C248.214 5.70224 250.587 5.7103 252.953 5.61006C254.095 5.57352 255.233 5.49117 256.361 5.36337C257.359 5.24029 258.348 5.05042 259.356 4.95263C259.665 4.96341 259.965 4.9157 260.274 4.90987L260.263 4.89289Z" fill="#FFA826"/>
</svg>
