<svg width="21" height="20" viewBox="0 0 21 20" fill="none" xmlns="http://www.w3.org/2000/svg">
<path d="M11.916 13.25V14.0625C11.916 14.709 11.6972 15.329 11.3077 15.7861C10.9182 16.2432 10.3899 16.5 9.8391 16.5H4.99294C4.44211 16.5 3.91384 16.2432 3.52434 15.7861C3.13484 15.329 2.91602 14.709 2.91602 14.0625V5.9375C2.91602 5.29103 3.13484 4.67105 3.52434 4.21393C3.91384 3.75681 4.44211 3.5 4.99294 3.5H9.8391C10.3899 3.5 10.9182 3.75681 11.3077 4.21393C11.6972 4.67105 11.916 5.29103 11.916 5.9375V6.75" stroke="#74788D" stroke-linecap="round" stroke-linejoin="round"/>
<path d="M7.91602 9.66667H17.916M17.916 9.66667L14.2493 6.5M17.916 9.66667L14.2493 12.8333" stroke="#74788D" stroke-linecap="round" stroke-linejoin="round"/>
</svg>
